<mxfile host="app.diagrams.net" modified="2024-01-03T02:21:08.195Z" agent="Mozilla/5.0 (Macintosh; Intel Mac OS X 10_15_7) AppleWebKit/537.36 (KHTML, like Gecko) Chrome/120.0.0.0 Safari/537.36" etag="btte0de1PGL9rR0JzeF1" version="22.1.16" type="github">
  <diagram id="C5RBs43oDa-KdzZeNtuy" name="Page-1">
    <mxGraphModel dx="701" dy="1955" grid="1" gridSize="10" guides="1" tooltips="1" connect="1" arrows="1" fold="1" page="1" pageScale="1" pageWidth="827" pageHeight="1169" math="0" shadow="0">
      <root>
        <mxCell id="WIyWlLk6GJQsqaUBKTNV-0" />
        <mxCell id="WIyWlLk6GJQsqaUBKTNV-1" parent="WIyWlLk6GJQsqaUBKTNV-0" />
        <mxCell id="5SzXvzlyFdVxs-1gDQvk-27" value="" style="edgeStyle=orthogonalEdgeStyle;rounded=0;orthogonalLoop=1;jettySize=auto;html=1;" edge="1" parent="WIyWlLk6GJQsqaUBKTNV-1" source="WIyWlLk6GJQsqaUBKTNV-6" target="5SzXvzlyFdVxs-1gDQvk-21">
          <mxGeometry relative="1" as="geometry" />
        </mxCell>
        <mxCell id="WIyWlLk6GJQsqaUBKTNV-6" value="&lt;div&gt;&lt;br&gt;&lt;/div&gt;&lt;ul&gt;&lt;li style=&quot;text-align: left;&quot;&gt;&amp;nbsp;PSO Loop&lt;/li&gt;&lt;li style=&quot;text-align: left;&quot;&gt;with obstacle avoidance&lt;/li&gt;&lt;li style=&quot;text-align: left;&quot;&gt;and time weighting&amp;nbsp;&lt;/li&gt;&lt;li style=&quot;text-align: left;&quot;&gt;Tuned to Golden Ratio&lt;/li&gt;&lt;li style=&quot;text-align: left;&quot;&gt;Unit = FS, SS, CB&lt;/li&gt;&lt;li style=&quot;text-align: left;&quot;&gt;&amp;nbsp;FRAME &lt;br&gt;BY FRAME&lt;/li&gt;&lt;/ul&gt;" style="rhombus;whiteSpace=wrap;html=1;shadow=0;fontFamily=Helvetica;fontSize=12;align=center;strokeWidth=1;spacing=6;spacingTop=-4;fillColor=#ffe6cc;strokeColor=#d79b00;" parent="WIyWlLk6GJQsqaUBKTNV-1" vertex="1">
          <mxGeometry x="160" y="-20" width="270" height="180" as="geometry" />
        </mxCell>
        <mxCell id="5SzXvzlyFdVxs-1gDQvk-26" value="" style="edgeStyle=orthogonalEdgeStyle;rounded=0;orthogonalLoop=1;jettySize=auto;html=1;" edge="1" parent="WIyWlLk6GJQsqaUBKTNV-1" source="WIyWlLk6GJQsqaUBKTNV-10" target="5SzXvzlyFdVxs-1gDQvk-23">
          <mxGeometry relative="1" as="geometry" />
        </mxCell>
        <mxCell id="WIyWlLk6GJQsqaUBKTNV-10" value="&lt;br&gt;Frechet Distance &lt;br&gt;in yards between &lt;br&gt;actual and swarm&lt;br&gt;&amp;nbsp;paths" style="rhombus;whiteSpace=wrap;html=1;shadow=0;fontFamily=Helvetica;fontSize=12;align=center;strokeWidth=1;spacing=6;spacingTop=-4;fillColor=#ffe6cc;strokeColor=#d79b00;" parent="WIyWlLk6GJQsqaUBKTNV-1" vertex="1">
          <mxGeometry x="580" y="400" width="154" height="150" as="geometry" />
        </mxCell>
        <mxCell id="5SzXvzlyFdVxs-1gDQvk-14" value="" style="edgeStyle=orthogonalEdgeStyle;rounded=0;orthogonalLoop=1;jettySize=auto;html=1;" edge="1" parent="WIyWlLk6GJQsqaUBKTNV-1" source="5SzXvzlyFdVxs-1gDQvk-4" target="5SzXvzlyFdVxs-1gDQvk-13">
          <mxGeometry relative="1" as="geometry" />
        </mxCell>
        <mxCell id="5SzXvzlyFdVxs-1gDQvk-4" value="&lt;br&gt;TRACKING DATA FROM KAGGLE&lt;br&gt;&lt;ul&gt;&lt;li style=&quot;&quot;&gt;Week 1-9&amp;nbsp;&lt;/li&gt;&lt;li style=&quot;&quot;&gt;All plays&amp;nbsp;&lt;/li&gt;&lt;li style=&quot;&quot;&gt;all games&amp;nbsp;&lt;/li&gt;&lt;li style=&quot;&quot;&gt;all players&lt;/li&gt;&lt;li style=&quot;&quot;&gt;FRAME BY FRAME&lt;/li&gt;&lt;li style=&quot;&quot;&gt;actual x, y, s&lt;/li&gt;&lt;/ul&gt;" style="rounded=0;whiteSpace=wrap;html=1;fillColor=#dae8fc;strokeColor=#6c8ebf;align=left;" vertex="1" parent="WIyWlLk6GJQsqaUBKTNV-1">
          <mxGeometry x="700" y="-10" width="127" height="180" as="geometry" />
        </mxCell>
        <mxCell id="5SzXvzlyFdVxs-1gDQvk-28" value="" style="edgeStyle=orthogonalEdgeStyle;rounded=0;orthogonalLoop=1;jettySize=auto;html=1;" edge="1" parent="WIyWlLk6GJQsqaUBKTNV-1" source="5SzXvzlyFdVxs-1gDQvk-13" target="5SzXvzlyFdVxs-1gDQvk-15">
          <mxGeometry relative="1" as="geometry" />
        </mxCell>
        <mxCell id="5SzXvzlyFdVxs-1gDQvk-13" value="Filter and &lt;br&gt;Clean Data&amp;nbsp;" style="shape=parallelogram;perimeter=parallelogramPerimeter;whiteSpace=wrap;html=1;fixedSize=1;rounded=0;" vertex="1" parent="WIyWlLk6GJQsqaUBKTNV-1">
          <mxGeometry x="707" y="210" width="120" height="60" as="geometry" />
        </mxCell>
        <mxCell id="5SzXvzlyFdVxs-1gDQvk-19" value="" style="edgeStyle=orthogonalEdgeStyle;rounded=0;orthogonalLoop=1;jettySize=auto;html=1;" edge="1" parent="WIyWlLk6GJQsqaUBKTNV-1" source="5SzXvzlyFdVxs-1gDQvk-15" target="WIyWlLk6GJQsqaUBKTNV-6">
          <mxGeometry relative="1" as="geometry" />
        </mxCell>
        <mxCell id="5SzXvzlyFdVxs-1gDQvk-15" value="&lt;ul style=&quot;border-color: var(--border-color);&quot;&gt;&lt;li style=&quot;border-color: var(--border-color); text-align: left;&quot;&gt;Week 1-9&lt;/li&gt;&lt;li style=&quot;border-color: var(--border-color); text-align: left;&quot;&gt;Completed Passes&lt;/li&gt;&lt;li style=&quot;border-color: var(--border-color); text-align: left;&quot;&gt;&amp;nbsp;(Ball arrived to end of play)&lt;/li&gt;&lt;li style=&quot;border-color: var(--border-color); text-align: left;&quot;&gt;actual x, y, s&lt;/li&gt;&lt;li style=&quot;border-color: var(--border-color); text-align: left;&quot;&gt;FRAME By Frame&lt;/li&gt;&lt;/ul&gt;" style="rounded=0;whiteSpace=wrap;html=1;fillColor=#dae8fc;strokeColor=#6c8ebf;" vertex="1" parent="WIyWlLk6GJQsqaUBKTNV-1">
          <mxGeometry x="510" y="70" width="160" height="130" as="geometry" />
        </mxCell>
        <mxCell id="5SzXvzlyFdVxs-1gDQvk-24" value="" style="edgeStyle=orthogonalEdgeStyle;rounded=0;orthogonalLoop=1;jettySize=auto;html=1;" edge="1" parent="WIyWlLk6GJQsqaUBKTNV-1" source="5SzXvzlyFdVxs-1gDQvk-21" target="WIyWlLk6GJQsqaUBKTNV-10">
          <mxGeometry relative="1" as="geometry" />
        </mxCell>
        <mxCell id="5SzXvzlyFdVxs-1gDQvk-21" value="&lt;ul style=&quot;border-color: var(--border-color);&quot;&gt;&lt;li style=&quot;border-color: var(--border-color); text-align: left;&quot;&gt;Week 1-9&lt;/li&gt;&lt;li style=&quot;border-color: var(--border-color); text-align: left;&quot;&gt;Completed Passes&lt;/li&gt;&lt;li style=&quot;border-color: var(--border-color); text-align: left;&quot;&gt;&amp;nbsp;(Ball arrived to end of play)&lt;/li&gt;&lt;li style=&quot;border-color: var(--border-color); text-align: left;&quot;&gt;actual x, y, s&lt;/li&gt;&lt;li style=&quot;border-color: var(--border-color); text-align: left;&quot;&gt;&lt;b style=&quot;border-color: var(--border-color); background-color: initial;&quot;&gt;&lt;i style=&quot;border-color: var(--border-color);&quot;&gt;with optimal x and y paths&lt;/i&gt;&lt;/b&gt;&lt;/li&gt;&lt;li style=&quot;border-color: var(--border-color); text-align: left;&quot;&gt;FRAME BY FRAME&lt;/li&gt;&lt;/ul&gt;" style="rounded=0;whiteSpace=wrap;html=1;fillColor=#d5e8d4;strokeColor=#82b366;" vertex="1" parent="WIyWlLk6GJQsqaUBKTNV-1">
          <mxGeometry x="390" y="210" width="160" height="140" as="geometry" />
        </mxCell>
        <mxCell id="5SzXvzlyFdVxs-1gDQvk-38" value="" style="edgeStyle=orthogonalEdgeStyle;rounded=0;orthogonalLoop=1;jettySize=auto;html=1;" edge="1" parent="WIyWlLk6GJQsqaUBKTNV-1" source="5SzXvzlyFdVxs-1gDQvk-23" target="5SzXvzlyFdVxs-1gDQvk-37">
          <mxGeometry relative="1" as="geometry" />
        </mxCell>
        <mxCell id="5SzXvzlyFdVxs-1gDQvk-23" value="&lt;ul&gt;&lt;li style=&quot;text-align: left;&quot;&gt;Week 1-9&lt;/li&gt;&lt;li style=&quot;text-align: left;&quot;&gt;Completed Passes&lt;/li&gt;&lt;li style=&quot;text-align: left;&quot;&gt;&amp;nbsp;(Ball arrived to end of play)&lt;/li&gt;&lt;li style=&quot;border-color: var(--border-color); text-align: left;&quot;&gt;actual x, y, s&lt;/li&gt;&lt;li style=&quot;text-align: left;&quot;&gt;&lt;span style=&quot;background-color: initial; border-color: var(--border-color);&quot;&gt;&lt;span style=&quot;border-color: var(--border-color);&quot;&gt;with optimal x and y paths&lt;/span&gt;&lt;/span&gt;&lt;br&gt;&lt;/li&gt;&lt;li style=&quot;text-align: left;&quot;&gt;&lt;b style=&quot;border-color: var(--border-color);&quot;&gt;&lt;i style=&quot;border-color: var(--border-color);&quot;&gt;with frechet distance&amp;nbsp;&lt;/i&gt;&lt;/b&gt;&lt;/li&gt;&lt;li style=&quot;text-align: left;&quot;&gt;&lt;span style=&quot;background-color: initial;&quot;&gt;FRAME BY FRAME&lt;/span&gt;&lt;br&gt;&lt;/li&gt;&lt;/ul&gt;" style="ellipse;whiteSpace=wrap;html=1;aspect=fixed;fillColor=#e1d5e7;strokeColor=#9673a6;" vertex="1" parent="WIyWlLk6GJQsqaUBKTNV-1">
          <mxGeometry x="370" y="385" width="180" height="180" as="geometry" />
        </mxCell>
        <mxCell id="5SzXvzlyFdVxs-1gDQvk-36" value="" style="edgeStyle=orthogonalEdgeStyle;rounded=0;orthogonalLoop=1;jettySize=auto;html=1;" edge="1" parent="WIyWlLk6GJQsqaUBKTNV-1" source="5SzXvzlyFdVxs-1gDQvk-30" target="5SzXvzlyFdVxs-1gDQvk-31">
          <mxGeometry relative="1" as="geometry" />
        </mxCell>
        <mxCell id="5SzXvzlyFdVxs-1gDQvk-30" value="Filter and &lt;br&gt;Clean Data&amp;nbsp;" style="shape=parallelogram;perimeter=parallelogramPerimeter;whiteSpace=wrap;html=1;fixedSize=1;rounded=0;" vertex="1" parent="WIyWlLk6GJQsqaUBKTNV-1">
          <mxGeometry x="10" y="160" width="120" height="60" as="geometry" />
        </mxCell>
        <mxCell id="5SzXvzlyFdVxs-1gDQvk-31" value="&lt;ul&gt;&lt;li&gt;gameId&lt;/li&gt;&lt;li&gt;playId&lt;/li&gt;&lt;li&gt;defensiveTeam&amp;nbsp;&lt;/li&gt;&lt;li&gt;xyac mean yardage&lt;/li&gt;&lt;li&gt;actual yac&amp;nbsp;&lt;/li&gt;&lt;li&gt;PLAY BY PLAY&amp;nbsp;&lt;/li&gt;&lt;/ul&gt;" style="ellipse;whiteSpace=wrap;html=1;aspect=fixed;align=left;fillColor=#e1d5e7;strokeColor=#9673a6;" vertex="1" parent="WIyWlLk6GJQsqaUBKTNV-1">
          <mxGeometry y="275" width="140" height="140" as="geometry" />
        </mxCell>
        <mxCell id="5SzXvzlyFdVxs-1gDQvk-35" value="" style="edgeStyle=orthogonalEdgeStyle;rounded=0;orthogonalLoop=1;jettySize=auto;html=1;" edge="1" parent="WIyWlLk6GJQsqaUBKTNV-1" source="5SzXvzlyFdVxs-1gDQvk-33" target="5SzXvzlyFdVxs-1gDQvk-30">
          <mxGeometry relative="1" as="geometry" />
        </mxCell>
        <mxCell id="5SzXvzlyFdVxs-1gDQvk-33" value="import pbp data from nflfastR&amp;nbsp;" style="rounded=0;whiteSpace=wrap;html=1;fillColor=#dae8fc;strokeColor=#6c8ebf;" vertex="1" parent="WIyWlLk6GJQsqaUBKTNV-1">
          <mxGeometry x="20" y="50" width="120" height="60" as="geometry" />
        </mxCell>
        <mxCell id="5SzXvzlyFdVxs-1gDQvk-40" value="" style="edgeStyle=orthogonalEdgeStyle;rounded=0;orthogonalLoop=1;jettySize=auto;html=1;" edge="1" parent="WIyWlLk6GJQsqaUBKTNV-1" source="5SzXvzlyFdVxs-1gDQvk-37" target="5SzXvzlyFdVxs-1gDQvk-39">
          <mxGeometry relative="1" as="geometry" />
        </mxCell>
        <mxCell id="5SzXvzlyFdVxs-1gDQvk-37" value="Aggregate to play level&amp;nbsp;&amp;nbsp;" style="shape=parallelogram;perimeter=parallelogramPerimeter;whiteSpace=wrap;html=1;fixedSize=1;rounded=0;" vertex="1" parent="WIyWlLk6GJQsqaUBKTNV-1">
          <mxGeometry x="220" y="460" width="120" height="60" as="geometry" />
        </mxCell>
        <mxCell id="5SzXvzlyFdVxs-1gDQvk-39" value="&lt;div&gt;&lt;br&gt;&lt;/div&gt;&lt;ul&gt;&lt;li&gt;gameId&lt;/li&gt;&lt;li&gt;playId&lt;/li&gt;&lt;li&gt;nflid&amp;nbsp;&lt;br&gt;&lt;/li&gt;&lt;li&gt;defensiveTeam&lt;/li&gt;&lt;li&gt;total frechet&amp;nbsp;&lt;br&gt;distance&amp;nbsp;&lt;br&gt;&lt;b style=&quot;background-color: initial;&quot;&gt;&lt;i&gt;for each nfl id&amp;nbsp;&lt;br&gt;&lt;/i&gt;&lt;/b&gt;&lt;/li&gt;&lt;li&gt;PLAY BY PLAY&amp;nbsp;&lt;/li&gt;&lt;li&gt;PLAYER LEVEL&amp;nbsp;&lt;/li&gt;&lt;/ul&gt;" style="ellipse;whiteSpace=wrap;html=1;aspect=fixed;align=left;fillColor=#e1d5e7;strokeColor=#9673a6;" vertex="1" parent="WIyWlLk6GJQsqaUBKTNV-1">
          <mxGeometry x="160" y="240" width="180" height="180" as="geometry" />
        </mxCell>
        <mxCell id="5SzXvzlyFdVxs-1gDQvk-43" value="" style="edgeStyle=orthogonalEdgeStyle;rounded=0;orthogonalLoop=1;jettySize=auto;html=1;" edge="1" parent="WIyWlLk6GJQsqaUBKTNV-1" source="5SzXvzlyFdVxs-1gDQvk-41" target="5SzXvzlyFdVxs-1gDQvk-42">
          <mxGeometry relative="1" as="geometry" />
        </mxCell>
        <mxCell id="5SzXvzlyFdVxs-1gDQvk-41" value="merge&amp;nbsp;&lt;br&gt;on play id&lt;br&gt;gameId" style="ellipse;whiteSpace=wrap;html=1;aspect=fixed;opacity=80;" vertex="1" parent="WIyWlLk6GJQsqaUBKTNV-1">
          <mxGeometry x="120.01" y="330" width="67.5" height="67.5" as="geometry" />
        </mxCell>
        <mxCell id="5SzXvzlyFdVxs-1gDQvk-53" value="" style="edgeStyle=orthogonalEdgeStyle;rounded=0;orthogonalLoop=1;jettySize=auto;html=1;" edge="1" parent="WIyWlLk6GJQsqaUBKTNV-1" source="5SzXvzlyFdVxs-1gDQvk-42" target="5SzXvzlyFdVxs-1gDQvk-52">
          <mxGeometry relative="1" as="geometry" />
        </mxCell>
        <mxCell id="5SzXvzlyFdVxs-1gDQvk-42" value="&lt;ul&gt;&lt;li&gt;gameId&lt;/li&gt;&lt;li&gt;nflId&lt;/li&gt;&lt;li&gt;team&lt;/li&gt;&lt;li&gt;playId&lt;/li&gt;&lt;li&gt;team xyac mean yardage&amp;nbsp;&lt;/li&gt;&lt;li style=&quot;border-color: var(--border-color);&quot;&gt;actual yac&amp;nbsp;&lt;/li&gt;&lt;li&gt;player frechet distance&amp;nbsp;&lt;/li&gt;&lt;li&gt;PLAY BY PLAY&amp;nbsp;&lt;/li&gt;&lt;li&gt;PLAYER LEVEL&amp;nbsp;&lt;/li&gt;&lt;/ul&gt;" style="rounded=1;whiteSpace=wrap;html=1;opacity=80;fillColor=#d5e8d4;strokeColor=#82b366;align=left;" vertex="1" parent="WIyWlLk6GJQsqaUBKTNV-1">
          <mxGeometry x="75.63" y="580" width="156.25" height="170" as="geometry" />
        </mxCell>
        <mxCell id="5SzXvzlyFdVxs-1gDQvk-48" value="" style="edgeStyle=orthogonalEdgeStyle;rounded=0;orthogonalLoop=1;jettySize=auto;html=1;" edge="1" parent="WIyWlLk6GJQsqaUBKTNV-1" source="5SzXvzlyFdVxs-1gDQvk-46" target="5SzXvzlyFdVxs-1gDQvk-47">
          <mxGeometry relative="1" as="geometry" />
        </mxCell>
        <mxCell id="5SzXvzlyFdVxs-1gDQvk-46" value="&lt;br&gt;Aggregate to team level&amp;nbsp;" style="shape=parallelogram;perimeter=parallelogramPerimeter;whiteSpace=wrap;html=1;fixedSize=1;rounded=0;" vertex="1" parent="WIyWlLk6GJQsqaUBKTNV-1">
          <mxGeometry x="282" y="780" width="130" height="65" as="geometry" />
        </mxCell>
        <mxCell id="5SzXvzlyFdVxs-1gDQvk-47" value="&lt;ul style=&quot;border-color: var(--border-color); text-align: left;&quot;&gt;&lt;li style=&quot;border-color: var(--border-color);&quot;&gt;gameId&lt;/li&gt;&lt;li style=&quot;border-color: var(--border-color);&quot;&gt;nflId&lt;/li&gt;&lt;li style=&quot;border-color: var(--border-color);&quot;&gt;team&lt;/li&gt;&lt;li style=&quot;border-color: var(--border-color);&quot;&gt;playId&lt;/li&gt;&lt;li style=&quot;border-color: var(--border-color);&quot;&gt;total team yac_diff&lt;/li&gt;&lt;li style=&quot;border-color: var(--border-color);&quot;&gt;perplay yac diff&amp;nbsp;&lt;/li&gt;&lt;li style=&quot;border-color: var(--border-color);&quot;&gt;per player frechet distance&amp;nbsp;&lt;/li&gt;&lt;li style=&quot;border-color: var(--border-color);&quot;&gt;total frechet distance&lt;/li&gt;&lt;li style=&quot;border-color: var(--border-color);&quot;&gt;total agents in swarm&amp;nbsp;&lt;/li&gt;&lt;li style=&quot;border-color: var(--border-color);&quot;&gt;&lt;span style=&quot;background-color: initial;&quot;&gt;TEAM LEVEL&amp;nbsp;&lt;/span&gt;&lt;br&gt;&lt;/li&gt;&lt;/ul&gt;" style="whiteSpace=wrap;html=1;rounded=0;fillColor=#d5e8d4;strokeColor=#82b366;" vertex="1" parent="WIyWlLk6GJQsqaUBKTNV-1">
          <mxGeometry x="590" y="845" width="160" height="162.5" as="geometry" />
        </mxCell>
        <mxCell id="5SzXvzlyFdVxs-1gDQvk-56" value="" style="edgeStyle=orthogonalEdgeStyle;rounded=0;orthogonalLoop=1;jettySize=auto;html=1;" edge="1" parent="WIyWlLk6GJQsqaUBKTNV-1" source="5SzXvzlyFdVxs-1gDQvk-52" target="5SzXvzlyFdVxs-1gDQvk-46">
          <mxGeometry relative="1" as="geometry" />
        </mxCell>
        <mxCell id="5SzXvzlyFdVxs-1gDQvk-58" value="" style="edgeStyle=orthogonalEdgeStyle;rounded=0;orthogonalLoop=1;jettySize=auto;html=1;" edge="1" parent="WIyWlLk6GJQsqaUBKTNV-1" source="5SzXvzlyFdVxs-1gDQvk-52">
          <mxGeometry relative="1" as="geometry">
            <mxPoint x="531" y="665" as="targetPoint" />
          </mxGeometry>
        </mxCell>
        <mxCell id="5SzXvzlyFdVxs-1gDQvk-52" value="&amp;nbsp;calculate Yac Diff&lt;br&gt;&lt;br&gt;xyac - actual yac&amp;nbsp;" style="rhombus;whiteSpace=wrap;html=1;shadow=0;fontFamily=Helvetica;fontSize=12;align=center;strokeWidth=1;spacing=6;spacingTop=-4;fillColor=#ffe6cc;strokeColor=#d79b00;" vertex="1" parent="WIyWlLk6GJQsqaUBKTNV-1">
          <mxGeometry x="270" y="590" width="154" height="150" as="geometry" />
        </mxCell>
        <mxCell id="5SzXvzlyFdVxs-1gDQvk-62" value="" style="edgeStyle=orthogonalEdgeStyle;rounded=0;orthogonalLoop=1;jettySize=auto;html=1;" edge="1" parent="WIyWlLk6GJQsqaUBKTNV-1" source="5SzXvzlyFdVxs-1gDQvk-60" target="5SzXvzlyFdVxs-1gDQvk-61">
          <mxGeometry relative="1" as="geometry" />
        </mxCell>
        <mxCell id="5SzXvzlyFdVxs-1gDQvk-60" value="&lt;br&gt;Aggregate to player level&amp;nbsp;" style="shape=parallelogram;perimeter=parallelogramPerimeter;whiteSpace=wrap;html=1;fixedSize=1;rounded=0;" vertex="1" parent="WIyWlLk6GJQsqaUBKTNV-1">
          <mxGeometry x="525" y="640" width="130" height="65" as="geometry" />
        </mxCell>
        <mxCell id="5SzXvzlyFdVxs-1gDQvk-61" value="&lt;ul style=&quot;border-color: var(--border-color); text-align: left;&quot;&gt;&lt;li style=&quot;border-color: var(--border-color);&quot;&gt;gameId&lt;/li&gt;&lt;li style=&quot;border-color: var(--border-color);&quot;&gt;nflId&lt;/li&gt;&lt;li style=&quot;border-color: var(--border-color);&quot;&gt;team&lt;/li&gt;&lt;li style=&quot;border-color: var(--border-color);&quot;&gt;displayName&lt;/li&gt;&lt;li style=&quot;border-color: var(--border-color);&quot;&gt;total player yac_diff&lt;/li&gt;&lt;li style=&quot;border-color: var(--border-color);&quot;&gt;perplay yac diff&amp;nbsp;&lt;/li&gt;&lt;li style=&quot;border-color: var(--border-color);&quot;&gt;per play frechet distance&amp;nbsp;&lt;/li&gt;&lt;li style=&quot;border-color: var(--border-color);&quot;&gt;total frechet distance&lt;/li&gt;&lt;li style=&quot;border-color: var(--border-color);&quot;&gt;total plays&amp;nbsp;&lt;/li&gt;&lt;li style=&quot;border-color: var(--border-color);&quot;&gt;&lt;span style=&quot;background-color: initial;&quot;&gt;PLAYER LEVEL&amp;nbsp;&lt;/span&gt;&lt;br&gt;&lt;/li&gt;&lt;/ul&gt;" style="whiteSpace=wrap;html=1;rounded=0;fillColor=#d5e8d4;strokeColor=#82b366;" vertex="1" parent="WIyWlLk6GJQsqaUBKTNV-1">
          <mxGeometry x="720" y="591.25" width="160" height="162.5" as="geometry" />
        </mxCell>
      </root>
    </mxGraphModel>
  </diagram>
</mxfile>
